<!-- Generator: Adobe Illustrator 21.0.0, SVG Export Plug-In  -->
<svg version="1.1"
	 xmlns="http://www.w3.org/2000/svg" xmlns:xlink="http://www.w3.org/1999/xlink" xmlns:a="http://ns.adobe.com/AdobeSVGViewerExtensions/3.0/"
	 x="0px" y="0px" width="498.7px" height="498.7px" viewBox="0 0 498.7 498.7" style="enable-background:new 0 0 498.7 498.7;"
	 xml:space="preserve">
<style type="text/css">
	.st0{fill:#FFFFFF;}
	.st1{fill:#97D5C9;}
	.st2{fill:#5A6E7F;}
	.st3{fill:#5CBFAB;}
</style>
<defs>
</defs>
<g>
	<g>
		<rect class="st0" width="498.7" height="498.7"/>
	</g>
</g>
<g>
	<path class="st1" d="M257.9,312.9v-16.2c4.7-2.9,7.8-8,7.8-14c0-12.5-13.9-21.7-27.1-13c-1,0.6-1.8,1.5-2.4,2.5
		c-6.5,9.9-2.9,20,4.5,24.5v16.2H257.9z"/>
	<path class="st2" d="M225.9,170.9c29.8-19,61.2,2.2,61.2,30.6h29.5c0-48.5-51.5-85.1-102.6-58.2c-19.9,10.5-32.1,31.4-32.1,53.9
		v29.1h-13.2c-7.1,0-12.8,5.7-12.8,12.8v101.7h186.7V239.1c0-7.1-5.7-12.8-12.8-12.8h-13.2h-29.5h-75.6v-29
		C211.5,186.6,216.9,176.6,225.9,170.9z M236.3,272.2c0.6-1,1.5-1.8,2.4-2.5c13.2-8.7,27.1,0.6,27.1,13c0,5.9-3.2,11.1-7.8,14v16.2
		h-17.2v-16.2C233.4,292.2,229.8,282.1,236.3,272.2z"/>
	<path class="st2" d="M176.5,364.5h145.7c9.6,0,17.6-6.6,19.8-15.4H156.7C158.9,358,166.9,364.5,176.5,364.5z"/>
	<path class="st3" d="M156,344c0,1.8,0.2,3.4,0.7,5.1H342c0.4-1.6,0.7-3.3,0.7-5.1v-3.3H156V344z"/>
</g>
</svg>
