<!-- Generator: Adobe Illustrator 21.0.0, SVG Export Plug-In  -->
<svg version="1.1"
	 xmlns="http://www.w3.org/2000/svg" xmlns:xlink="http://www.w3.org/1999/xlink" xmlns:a="http://ns.adobe.com/AdobeSVGViewerExtensions/3.0/"
	 x="0px" y="0px" width="586px" height="585px" viewBox="0 0 586 585" style="enable-background:new 0 0 586 585;"
	 xml:space="preserve">
<style type="text/css">
	.st0{clip-path:url(#SVGID_2_);fill:#FFFFFF;}
	.st1{fill:#C9C9C9;}
	.st2{fill:#4A92CE;}
	.st3{opacity:0.64;fill:#A2B3BC;}
	.st4{fill:#7BB1D6;}
	.st5{opacity:0.51;fill:#A2B3BC;}
	.st6{fill:#9ACCE8;}
	.st7{fill:#283135;}
	.st8{fill:#EFEFEF;}
	.st9{opacity:0.4;fill:#999999;}
	.st10{fill:#333333;}
	.st11{clip-path:url(#SVGID_4_);fill:#FFFFFF;}
</style>
<defs>
</defs>
<g>
	<defs>
		<rect id="SVGID_1_" x="42" y="40" width="500" height="500"/>
	</defs>
	<use xlink:href="#SVGID_1_"  style="overflow:visible;fill:#729B75;"/>
	<clipPath id="SVGID_2_">
		<use xlink:href="#SVGID_1_"  style="overflow:visible;"/>
	</clipPath>
	<rect class="st0" width="586" height="585"/>
</g>
<path class="st1" d="M112.6,344.5c11.6-6.6,142.6-83.6,154.9-90.2c12.3-6.6,28.8-8.5,44.9,0c16.1,8.5,155.4,88.8,163.4,92.6
	c8,3.8,10.9,13.7,0,20.3c-10.9,6.6-150.7,86-161.1,93.1c-10.4,7.1-24.6,13.7-46.3,0c-21.7-13.7-148.3-85-159.7-91.2
	C97.5,362.9,96.9,353.5,112.6,344.5z"/>
<g>
	<polygon class="st2" points="291.7,410.5 190.7,352.4 190.7,241.4 291.8,296.4 	"/>
	<polygon class="st3" points="291.8,318.4 190.7,260.4 190.7,241.4 291.8,296.4 	"/>
	<polygon class="st2" points="291.8,310.4 183.7,249.4 183.7,224.4 291.8,285.4 	"/>
	<polygon class="st4" points="291.7,410.5 392.7,352.5 392.7,247.5 291.7,305.5 	"/>
	<polygon class="st5" points="291.7,318.4 392.7,260.3 392.7,247.5 291.7,305.5 	"/>
	<polygon class="st4" points="291.7,310.4 399.7,249.4 399.7,224.5 291.7,285.5 	"/>
	<polygon class="st6" points="291.8,285.4 183.7,223.9 291.8,162.5 399.8,224.5 	"/>
	<path class="st7" d="M268.4,237.7c-1,0-2-0.5-2.6-1.5c-0.8-1.4-0.3-3.3,1.1-4.1l46.7-27.1c1.4-0.8,3.3-0.3,4.1,1.1
		c0.8,1.4,0.3,3.3-1.1,4.1l-46.7,27.1C269.4,237.5,268.9,237.7,268.4,237.7z"/>
	<path class="st8" d="M368,348l-42.5,23.6c-5.3,2.5-10.1-1.9-10.1-10.1V320c0-5.6,2.5-9.4,10.1-13.5l36.1-19.8
		c8.6-4,14.2,2.4,14.2,7.9v42.1C375.8,342.3,372.8,344.9,368,348z"/>
	<path class="st5" d="M326.3,322.5c-0.7,0-1.4-0.4-1.8-1c-0.5-1-0.2-2.2,0.8-2.7l40.6-22.2c1-0.5,2.2-0.2,2.7,0.8
		c0.5,1,0.2,2.2-0.8,2.7l-40.6,22.2C326.9,322.4,326.6,322.5,326.3,322.5z"/>
	<path class="st5" d="M326.3,360.3c-0.7,0-1.4-0.4-1.8-1c-0.5-1-0.2-2.2,0.8-2.7l22.2-12.1c1-0.5,2.2-0.2,2.7,0.8
		c0.5,1,0.2,2.2-0.8,2.7L327.2,360C326.9,360.2,326.6,360.3,326.3,360.3z"/>
	<path class="st5" d="M326.3,334.9c-0.7,0-1.4-0.4-1.8-1c-0.5-1-0.2-2.2,0.8-2.7l40.6-22.2c1-0.5,2.2-0.2,2.7,0.8
		c0.5,1,0.2,2.2-0.8,2.7l-40.6,22.2C326.9,334.8,326.6,334.9,326.3,334.9z"/>
	<path class="st5" d="M326.3,347.3c-0.7,0-1.4-0.4-1.8-1c-0.5-1-0.2-2.2,0.8-2.7l40.6-22.2c1-0.5,2.2-0.2,2.7,0.8
		c0.5,1,0.2,2.2-0.8,2.7L327.2,347C326.9,347.2,326.6,347.3,326.3,347.3z"/>
</g>
<polygon class="st9" points="291.7,410.4 237.4,441.9 135.6,384 190.7,352.4 "/>
<path class="st10" d="M270.7,233.7c0,0,0-44,0-48.3c0-4.3,1.6-6.5,5.3-8.9c3.9-2.5,26.2-15.8,28.7-17c6-2.8,8.4,0.8,8.4,5.3
	c0,4.5,0,44.3,0,44.3L270.7,233.7z"/>
</svg>
