<!-- Generator: Adobe Illustrator 21.0.0, SVG Export Plug-In  -->
<svg version="1.1"
	 xmlns="http://www.w3.org/2000/svg" xmlns:xlink="http://www.w3.org/1999/xlink" xmlns:a="http://ns.adobe.com/AdobeSVGViewerExtensions/3.0/"
	 x="0px" y="0px" width="508.8px" height="508.8px" viewBox="0 0 508.8 508.8" style="enable-background:new 0 0 508.8 508.8;"
	 xml:space="preserve">
<style type="text/css">
	.st0{fill:#FFFFFF;}
	.st1{fill:#C9C9C9;}
	.st2{fill:#999999;}
	.st3{fill:#37474F;}
	.st4{fill:#263238;}
	.st5{fill:#27DEBF;}
	.st6{fill:#27DEBF;stroke:#FFFFFF;stroke-miterlimit:10;}
	.st7{fill:#455A64;}
	.st8{fill:#F5F5F5;}
	.st9{fill:#FAFAFA;}
	.st10{fill:#E0E0E0;}
	.st11{clip-path:url(#XMLID_21_);}
	.st12{opacity:0.4;}
	.st13{opacity:0.15;}
	.st14{opacity:0.7;fill:#FFFFFF;}
	.st15{opacity:0.5;fill:#FFFFFF;}
	.st16{fill:none;stroke:#FFFFFF;stroke-width:1.0527;stroke-linecap:round;stroke-linejoin:round;stroke-miterlimit:10;}
	.st17{opacity:0.5;}
	.st18{clip-path:url(#XMLID_22_);}
</style>
<defs>
</defs>
<rect class="st0" width="508.8" height="508.8"/>
<path id="Floor_2_" class="st1" d="M368.2,268.3c61.7,35.6,61.7,93.4,0,129c-61.7,35.6-161.7,35.6-223.4,0
	c-61.7-35.6-61.7-93.4,0-129C206.5,232.6,306.5,232.6,368.2,268.3z"/>
<polygon id="Shadow_2_" class="st2" points="171.4,309.2 318.1,393.9 385.4,355.1 238.6,270.3 "/>
<path id="Shadow_1_" class="st2" d="M145.3,325.9L115,308.4c-0.9-0.5-0.9-1.4,0-1.9l106.8-61.6c0.9-0.5,2.4-0.5,3.3,0l30.4,17.5
	c0.9,0.5,0.9,1.4,0,1.9l-106.8,61.6C147.7,326.4,146.2,326.4,145.3,325.9z"/>
<g id="Device_1_">
	<g id="Device_2_">
		<g id="XMLID_17_">
			<path id="XMLID_18_" class="st3" d="M243.8,113.2l-78.9,45.5c-1.6,0.9-2.9,3.1-2.9,5v177.9c0,1.8,1.3,2.6,2.9,1.7l78.9-45.5
				c1.6-0.9,2.9-3.1,2.9-5V114.9C246.7,113,245.4,112.3,243.8,113.2z M242.6,276.4c0,1.6-1.1,2.6-2.5,3.3l-71.7,41.4
				c-1.4,0.8-2.5,0.2-2.5-1.4V180.4c0-1.6,1.1-3.5,2.5-4.3l71.7-41.4c1.4-0.8,2.5-0.2,2.5,1.4V276.4z"/>
		</g>
		<g id="XMLID_15_">
			<path id="XMLID_16_" class="st4" d="M164.6,343.5c-1.6,0.7-3.9,0.7-5.4-0.2l-3.3-1.9c-1.6-0.9-2.9-3.1-2.9-5V158.5
				c0-0.7,0.2-1.4,0.5-2.1c0.1-0.2,0.2-0.5,0.3-0.7c0,0,0,0,0,0l9,5.2h0c-0.2,0.3-0.4,0.7-0.5,1.1c-0.2,0.6-0.3,1.2-0.3,1.8v177.9
				C162.1,343.4,163.2,344.1,164.6,343.5z"/>
		</g>
		<path id="XMLID_14_" class="st5" d="M205.1,304.9c2.5-1.4,4.5-0.3,4.5,2.6c0,2.9-2,6.4-4.5,7.8c-2.5,1.4-4.5,0.3-4.5-2.6
			C200.5,309.9,202.6,306.4,205.1,304.9z"/>
		<g id="XMLID_11_">
			<path id="XMLID_13_" d="M204.4,139.8c1.1-0.6,1.9-0.1,1.9,1.1c0,1.2-0.9,2.7-1.9,3.3c-1.1,0.6-1.9,0.1-1.9-1.1
				C202.5,141.9,203.3,140.4,204.4,139.8z"/>
			<path id="XMLID_12_" d="M197,151.5l14.9-8.6c0.9-0.5,1.6-0.1,1.6,0.8c0,1-0.7,2.2-1.6,2.7L197,155c-0.9,0.5-1.6,0.1-1.6-0.8
				C195.4,153.2,196.1,152,197,151.5z"/>
		</g>
		<path id="XMLID_10_" class="st6" d="M242.6,276.3c0,1.6-1.1,2.6-2.5,3.3L168.4,321c-1.4,0.8-2.5,0.2-2.5-1.4V180.2
			c0-1.6,1.1-3.5,2.5-4.3l71.7-41.4c1.4-0.8,2.5-0.2,2.5,1.4V276.3z"/>
		<g id="XMLID_8_">
			<path id="XMLID_9_" class="st7" d="M246.7,114.4c-0.2-1.5-1.4-2-2.8-1.2l-78.9,45.6c-0.8,0.5-1.5,1.2-2,2.1l-9-5.2
				c0.5-0.9,1.2-1.7,2-2.1l78.9-45.6c1.6-0.9,4.1-0.9,5.7,0l3.3,1.9C245.3,110.7,246.5,112.7,246.7,114.4z"/>
		</g>
	</g>
</g>
<g id="Analysis_1_">
	<g>
		<g>
			<polygon class="st7" points="170.5,241.6 241,201 241,210.7 170.5,251.4 			"/>
			<polygon class="st4" points="173.3,243.2 173.3,246.5 238.1,209.1 238.1,205.8 			"/>
			<polygon class="st3" points="170.5,241.6 167.7,240 238.1,199.3 241,201 			"/>
			<polygon class="st4" points="167.7,240 170.5,241.6 170.5,251.4 167.7,249.7 			"/>
		</g>
		<g id="XMLID_3_">
			<polygon id="XMLID_6_" class="st3" points="373.4,368.5 311.4,404.3 311.4,402.7 373.4,366.9 			"/>
			<path id="XMLID_5_" class="st8" d="M252.2,270.7l-13.7,7.9l-8.4,4.8c-0.3,0.1-0.5,0.3-0.8,0.5c-3.1,1.9-5.3,5.4-5.3,9.6l0,39.2
				c0,3.8-1.8,7-4.5,9c-1.9,1.4-4.3,2.3-6.8,2.3c-1.9,0-3.8-0.5-5.6-1.5c-10.5-6-16.9-17.2-16.9-29.3v-40.7c0-6-1.6-11.9-4.5-16.9
				c-2.9-5.1-7.1-9.4-12.4-12.4l62-35.8l0,0c5.2,3,9.5,7.3,12.4,12.4c2.9,5.1,4.5,10.9,4.5,16.9v17.7
				C252.2,259.5,252.2,270.7,252.2,270.7z"/>
			<path class="st7" d="M274.8,381.5c-10.5-6-16.9-17.2-16.9-29.3l0-39.3c0-4.6-0.9-9-2.7-13.1c-0.5-1.3-1.2-2.6-1.9-3.8
				c-2.9-5-7.1-9.3-12.4-12.4l0,0c-7.5-4.3-16.9,1.1-16.9,9.8l0,4l0-4l0,39.2l0-8.2v8.1c0,8.7-9.4,14.1-16.9,9.8
				c-10.5-6-16.9-17.2-16.9-29.3v-40.7c0-6-1.6-11.9-4.5-16.9c-2.9-5.1-7.1-9.4-12.4-12.4v1.6c9.6,5.9,15.5,16.4,15.5,27.7v40.7
				c0,12.5,6.7,24.2,17.6,30.5c4,2.3,8.7,2.3,12.7,0c0.2-0.1,0.5-0.3,0.7-0.4l0,0c3.5-2.4,5.6-6.2,5.6-10.5l0-39.2
				c0-3.6,1.8-6.8,4.9-8.6c3.1-1.8,6.8-1.8,9.9,0c6.2,3.6,11,9.2,13.7,15.6c1.6,3.9,2.5,8.1,2.5,12.4l0,9.1l0,30.1
				c0,12.5,6.7,24.2,17.6,30.5l37.3,21.5v-1.6L274.8,381.5z"/>
			<path id="XMLID_4_" class="st9" d="M373.4,366.9l-62,35.8l-36.6-21.1c-10.5-6-16.9-17.2-16.9-29.3l0-39.3c0-4.6-0.9-9-2.7-13.1
				c-0.5-1.3-1.2-2.6-1.9-3.8c-2.9-5-7.1-9.3-12.4-12.4c-3.6-2.1-7.6-1.9-10.8-0.3l8.4-4.8l16.9-9.7l36.1-20.9l0.1-0.1
				c3.3-1.9,7.5-2.2,11.2,0c5.2,3,9.5,7.3,12.4,12.4c2.9,5.1,4.5,10.9,4.5,16.9l0,39.2c0,12.1,6.4,23.2,16.9,29.3L373.4,366.9z"/>
			<path class="st10" d="M256.5,313c0-4.3-0.9-8.5-2.5-12.4c-2.7-6.5-7.5-12-13.7-15.6c-3.1-1.8-6.8-1.8-9.9,0
				c-3.1,1.8-4.9,5-4.9,8.6l0,39.2c0,4.3-2.1,8.1-5.6,10.5l0,0c-0.2,0.2-0.5,0.3-0.7,0.4l37.4-21.6L256.5,313z"/>
			<path class="st2" d="M256.5,313c0-4.3-0.9-8.5-2.5-12.4c-2.7-6.5-7.5-12-13.7-15.6c-3.1-1.8-6.8-1.8-9.9,0
				c-3.1,1.8-4.9,5-4.9,8.6l0,39.2c0,4.3-2.1,8.1-5.6,10.5l0,0c-0.2,0.2-0.5,0.3-0.7,0.4l37.4-21.6L256.5,313z"/>
		</g>
	</g>
	<g>
		<defs>
			<path id="XMLID_1_" d="M252.2,270.7l-13.7,7.9l-8.4,4.8c-0.3,0.1-0.5,0.3-0.8,0.5c-3.1,1.9-5.3,5.4-5.3,9.6l0,39.2
				c0,3.8-1.8,7-4.5,9c-1.9,1.4-4.3,2.3-6.8,2.3c-1.9,0-3.8-0.5-5.6-1.5c-10.5-6-16.9-17.2-16.9-29.3v-40.7c0-6-1.6-11.9-4.5-16.9
				c-2.9-5.1-7.1-9.4-12.4-12.4l62-35.8l0,0c5.2,3,9.5,7.3,12.4,12.4c2.9,5.1,4.5,10.9,4.5,16.9v17.7
				C252.2,259.5,252.2,270.7,252.2,270.7z"/>
		</defs>
		<clipPath id="XMLID_21_">
			<use xlink:href="#XMLID_1_"  style="overflow:visible;"/>
		</clipPath>
		<g class="st11">
			<path class="st5" d="M184.4,243.4c1.3,1.1,3.6,1.4,5.3,0.4l44.2-25.5c1.7-1,2.1-2.7,0.8-3.9c-1.3-1.1-3.8-1.1-5.4-0.2l-44.2,25.5
				C183.2,240.8,183,242.3,184.4,243.4z"/>
			<g>
				<path class="st12" d="M220,233.8c-0.2,0-0.3-0.1-0.4-0.2c-0.1-0.2-0.1-0.5,0.2-0.7l20.7-11.9c0.2-0.1,0.5-0.1,0.7,0.2
					c0.1,0.2,0.1,0.5-0.2,0.7l-20.7,11.9C220.2,233.8,220.1,233.8,220,233.8z"/>
			</g>
			<g>
				<path class="st12" d="M221.6,236.4c-0.2,0-0.3-0.1-0.4-0.2c-0.1-0.2-0.1-0.5,0.2-0.7l20.7-11.9c0.2-0.1,0.5-0.1,0.7,0.2
					c0.1,0.2,0.1,0.5-0.2,0.7l-20.7,11.9C221.8,236.4,221.7,236.4,221.6,236.4z"/>
			</g>
			<g>
				<path class="st12" d="M222.9,239.2c-0.2,0-0.3-0.1-0.4-0.2c-0.1-0.2-0.1-0.5,0.2-0.7l20.7-11.9c0.2-0.1,0.5-0.1,0.7,0.2
					c0.1,0.2,0.1,0.5-0.2,0.7l-20.7,11.9C223.1,239.2,223,239.2,222.9,239.2z"/>
			</g>
			<g>
				<path class="st12" d="M224,242.1c-0.2,0-0.3-0.1-0.4-0.2c-0.1-0.2-0.1-0.5,0.2-0.7l20.7-11.9c0.2-0.1,0.5-0.1,0.7,0.2
					c0.1,0.2,0.1,0.5-0.2,0.7L224.3,242C224.2,242.1,224.1,242.1,224,242.1z"/>
			</g>
			<g>
				<path class="st12" d="M224.8,244.9c-0.2,0-0.3-0.1-0.4-0.2c-0.1-0.2-0.1-0.5,0.2-0.7l20.7-11.9c0.2-0.1,0.5-0.1,0.7,0.2
					c0.1,0.2,0.1,0.5-0.2,0.7l-20.7,11.9C225,244.9,224.9,244.9,224.8,244.9z"/>
			</g>
			<g>
				<path class="st12" d="M225.3,248c-0.2,0-0.3-0.1-0.4-0.2c-0.1-0.2-0.1-0.5,0.2-0.7l20.7-11.9c0.2-0.1,0.5-0.1,0.7,0.2
					c0.1,0.2,0.1,0.5-0.2,0.7l-20.7,11.9C225.5,247.9,225.4,248,225.3,248z"/>
			</g>
			<g>
				<path class="st12" d="M225.6,251.2c-0.2,0-0.3-0.1-0.4-0.2c-0.1-0.2-0.1-0.5,0.2-0.7l20.7-11.9c0.2-0.1,0.5-0.1,0.7,0.2
					c0.1,0.2,0.1,0.5-0.2,0.7l-20.7,11.9C225.8,251.2,225.7,251.2,225.6,251.2z"/>
			</g>
			<g>
				<path class="st12" d="M196.1,274.3c-0.1,0-0.2-0.1-0.3-0.2c-0.1-0.2,0-0.4,0.1-0.5l50.2-29c0.2-0.1,0.4,0,0.5,0.1
					c0.1,0.2,0,0.4-0.1,0.5l-50.2,29C196.3,274.3,196.2,274.3,196.1,274.3z"/>
				<path class="st12" d="M196.1,277.4c-0.1,0-0.2-0.1-0.3-0.2c-0.1-0.2,0-0.4,0.1-0.5l50.2-29c0.2-0.1,0.4,0,0.5,0.1
					c0.1,0.2,0,0.4-0.1,0.5l-50.2,29C196.3,277.4,196.2,277.4,196.1,277.4z"/>
				<path class="st12" d="M196.1,280.5c-0.1,0-0.2-0.1-0.3-0.2c-0.1-0.2,0-0.4,0.1-0.5l50.2-29c0.2-0.1,0.4,0,0.5,0.1
					c0.1,0.2,0,0.4-0.1,0.5l-50.2,29C196.3,280.5,196.2,280.5,196.1,280.5z"/>
				<path class="st12" d="M196.1,283.6c-0.1,0-0.2-0.1-0.3-0.2c-0.1-0.2,0-0.4,0.1-0.5l50.2-29c0.2-0.1,0.4,0,0.5,0.1
					c0.1,0.2,0,0.4-0.1,0.5l-50.2,29C196.3,283.6,196.2,283.6,196.1,283.6z"/>
			</g>
			<g>
				<g>
					<g>
						<path class="st12" d="M196.1,269.8c-0.1,0-0.2-0.1-0.3-0.2c-0.1-0.2,0-0.4,0.1-0.5l26.6-15.3c0.2-0.1,0.4,0,0.5,0.1
							c0.1,0.2,0,0.4-0.1,0.5l-26.6,15.3C196.3,269.8,196.2,269.8,196.1,269.8z"/>
					</g>
				</g>
				<g>
					<path class="st5" d="M195.4,252c1.1,2.1,1.9,4.2,2.5,6.3c0.6,1.9,0.9,4.3,1.2,6.9c0,0.5,0.4,0.7,0.8,0.4l1.5-0.9
						c0.4-0.2,0.7-0.8,0.7-1.3c-0.2-2.4-0.6-4.8-1.2-7.1c-0.7-2.3-1.5-4.4-2.4-6.1c-0.2-0.4-0.8-0.6-1.2-0.3l-1.5,0.8
						C195.3,251.1,195.2,251.6,195.4,252z"/>
				</g>
				<g>
					<path class="st5" d="M199.8,245.9c1.3,2.1,2.5,4.6,3.6,7.6c0.8,2.4,1.4,5.1,1.6,8.3c0,0.5,0.4,0.7,0.8,0.4l1.5-0.9
						c0.4-0.2,0.7-0.8,0.7-1.3c-0.2-2.8-0.8-5.6-1.6-8.3c-0.9-2.8-2.1-5.3-3.5-7.5c-0.3-0.4-0.8-0.5-1.2-0.3l-1.5,0.8
						C199.6,245,199.5,245.5,199.8,245.9z"/>
				</g>
				<path class="st5" d="M209.2,250.1"/>
				<path class="st5" d="M211.4,248.8l-1.5,0.8c-0.4,0.2-0.6,0.8-0.5,1.3c0.7,2.2,1.1,4.7,1.3,7.5c0,0.5,0.4,0.7,0.8,0.4l1.5-0.9
					c0.4-0.2,0.7-0.8,0.7-1.3c-0.2-2.5-0.6-5-1.4-7.4C212.3,248.7,211.9,248.6,211.4,248.8z"/>
				<path class="st5" d="M217.3,242.9c-0.2-0.4-0.7-0.6-1.1-0.4l-1.5,0.8c-0.4,0.2-0.6,0.8-0.4,1.2c0.3,0.7,0.5,1.4,0.8,2.1
					c0.8,2.4,1.4,5.1,1.6,8.3c0,0.5,0.4,0.7,0.8,0.4l1.5-0.9c0.4-0.2,0.7-0.8,0.7-1.3c-0.2-2.8-0.8-5.6-1.6-8.3
					C217.9,244.3,217.6,243.6,217.3,242.9z"/>
				<path class="st12" d="M197.2,263.9c-0.1-0.1-0.2-0.2-0.3-0.1l-0.6,0.4c-0.1-0.9-0.3-1.7-0.5-2.5l0.8-0.5
					c0.1-0.1,0.2-0.2,0.1-0.3c-0.1-0.1-0.2-0.2-0.3-0.1l-0.7,0.4c-0.2-0.8-0.4-1.7-0.7-2.5l0.8-0.5c0.1-0.1,0.2-0.2,0.1-0.3
					c-0.1-0.1-0.2-0.2-0.3-0.1l-0.7,0.4c-0.3-0.8-0.6-1.6-0.9-2.3c0,0,0,0,0-0.1l0.8-0.5c0.1-0.1,0.2-0.2,0.1-0.3
					c-0.1-0.1-0.2-0.2-0.3-0.1l-0.7,0.4c-0.3-0.8-0.7-1.5-1.1-2.3l0.8-0.5c0.1-0.1,0.2-0.2,0.1-0.3c-0.1-0.1-0.2-0.2-0.3-0.1
					l-0.8,0.4c-0.4-0.7-0.9-1.5-1.4-2.2l0.9-0.5c0.1-0.1,0.2-0.2,0.1-0.3c-0.1-0.1-0.2-0.2-0.3-0.1l-0.9,0.5
					c-0.5-0.8-1.1-1.5-1.7-2.2c-0.1-0.1-0.2-0.1-0.3,0c-0.1,0.1-0.1,0.2,0,0.3c0.6,0.7,1.1,1.4,1.6,2.2l-0.8,0.5
					c-0.1,0.1-0.2,0.2-0.1,0.3c0,0.1,0.1,0.1,0.2,0.1c0,0,0.1,0,0.1,0l0.9-0.5c0.5,0.7,0.9,1.5,1.4,2.2l-1,0.6
					c-0.1,0.1-0.2,0.2-0.1,0.3c0,0.1,0.1,0.1,0.2,0.1c0,0,0.1,0,0.1,0l1-0.6c0.4,0.8,0.8,1.5,1.1,2.3l-1,0.6
					c-0.1,0.1-0.2,0.2-0.1,0.3c0,0.1,0.1,0.1,0.2,0.1c0,0,0.1,0,0.1,0l1-0.6c0,0,0,0,0,0c0.3,0.8,0.6,1.6,0.9,2.4l-1,0.6
					c-0.1,0.1-0.2,0.2-0.1,0.3c0,0.1,0.1,0.1,0.2,0.1c0,0,0.1,0,0.1,0l1-0.6c0.3,0.8,0.5,1.6,0.7,2.5l-1,0.6
					c-0.1,0.1-0.2,0.2-0.1,0.3c0,0.1,0.1,0.1,0.2,0.1c0,0,0.1,0,0.1,0l0.9-0.5c0.2,0.8,0.3,1.7,0.5,2.5l-1.1,0.6
					c-0.1,0.1-0.2,0.2-0.1,0.3c0,0.1,0.1,0.1,0.2,0.1c0,0,0.1,0,0.1,0l1-0.5c0.1,1,0.2,2.1,0.3,3.2c0,0.1,0.1,0.2,0.2,0.2
					c0,0,0,0,0,0c0.1,0,0.2-0.1,0.2-0.3c-0.1-1.1-0.2-2.3-0.3-3.4l0.8-0.5C197.2,264.1,197.2,264,197.2,263.9z"/>
			</g>
			<g>
				<g class="st13">
					<g>
						<path class="st5" d="M199.7,312c-0.2-1.9-0.3-3.7-0.2-5.6c0.2-0.7,3.2-11,8.7-14.2c0.4-0.2,0.8-0.4,1.1-0.5
							c0.2,0,0.3-0.1,0.5-0.1c1.5,0,2.1,2,2.7,4c0.3,0.8,0.5,1.7,0.9,2.4c0.4,0.8,1,1.8,2.2,1.8c0.5,0,1-0.2,1.5-0.5
							c2.6-1.5,3.4-5.6,4.2-9.9c0.4-2,0.7-4,1.3-5.7c0.8-2.5,1.8-4.1,3.3-4.9c0.5-0.3,0.9-0.4,1.2-0.4c1.5,0,2.1,2.7,2.7,5.4
							c0.3,1.4,0.6,2.9,1.1,4c0.6,1.3,1.3,1.9,2.2,1.9c0.5,0,1-0.2,1.6-0.5c3.2-1.9,4.2-5.1,5.2-8.1c0.8-2.6,1.6-5.1,3.7-6.3
							c0.6-0.3,1.1-0.5,1.6-0.5c0.2,0,0.5,0,0.7,0.1c0.1,0.8,0.1,1.5,0.1,1.5l0,6.2c0.1,1.2,0.1,2.1,0.2,2.9L199.7,312z"/>
					</g>
					<g>
						<path d="M246.6,285.3c-0.1-0.9-0.2-2-0.3-3.1l0-6.2c0,0,0-0.7-0.1-1.7c-0.3-0.1-0.6-0.2-1-0.2l0,0c-0.5,0-1.1,0.2-1.8,0.5
							c-4.8,2.8-3,11-8.9,14.4c-0.5,0.3-1,0.5-1.4,0.5c-0.9,0-1.5-0.7-1.9-1.7c-1.4-3.2-1.4-9.6-4.1-9.6c-0.4,0-0.9,0.1-1.4,0.4
							c-1.7,1-2.7,2.9-3.4,5.1c-1.8,5.5-1.7,13.3-5.4,15.4c-0.5,0.3-1,0.4-1.3,0.4c-0.9,0-1.5-0.7-1.9-1.6c-1.1-2.4-1.5-6.6-3.9-6.6
							c-0.2,0-0.3,0-0.5,0.1c-0.4,0.1-0.7,0.2-1.2,0.5c-5.9,3.4-8.9,14.4-8.9,14.4c-0.1,2.1,0,4.2,0.3,6.2l0.7-0.4
							c0-0.2-0.1-0.4-0.1-0.7c-0.2-1.6-0.2-3.3-0.2-5c0.3-1,3.2-10.9,8.5-13.9c0.4-0.2,0.7-0.3,1-0.4c0.1,0,0.3,0,0.4,0
							c1.2,0,1.8,1.9,2.4,3.8c0.3,0.8,0.5,1.7,0.9,2.4c0.2,0.5,1,2,2.5,2c0.5,0,1.1-0.2,1.7-0.5c2.8-1.6,3.6-5.7,4.4-10.2
							c0.4-1.9,0.7-3.9,1.3-5.7c0.8-2.4,1.8-3.9,3.1-4.7c0.4-0.2,0.8-0.4,1.1-0.4c1.3,0,1.8,2.7,2.3,5.1c0.3,1.5,0.6,3,1.1,4.1
							c0.6,1.4,1.5,2.1,2.6,2.1c0.5,0,1.1-0.2,1.8-0.5c3.4-1.9,4.4-5.3,5.3-8.3c0.8-2.5,1.5-4.9,3.6-6.1c0.5-0.3,1-0.5,1.4-0.5l0,0
							c0.1,0,0.3,0,0.4,0c0.1,0.7,0.1,1.2,0.1,1.2l0,6.3c0.1,1.1,0.1,1.9,0.2,2.7c0,0.3,0.1,0.6,0.1,0.7L246.6,285.3"/>
					</g>
				</g>
				<g class="st12">
					<path class="st5" d="M199.1,303.2v3.1c-0.1,2.1,0,4.2,0.3,6.2l47.2-27.3c-0.1-0.9-0.2-2-0.3-3.1l0-6.2c0,0,0-9.3-5.9-5.9
						c-6.2,3.6-4.4,15-8.9,17.5c-4.4,2.6-3-7.6-8.9-4.2c-5.9,3.4-3,11-8.9,14.4c-5.9,3.4-3-13.8-8.9-10.4
						C199.1,290.8,199.1,299.3,199.1,303.2z"/>
				</g>
				<g>
					<path class="st12" d="M197,317.4c-0.1,0-0.2,0-0.2-0.1c-0.1-0.1,0-0.3,0.1-0.3l50.2-28.8c0.1-0.1,0.3,0,0.3,0.1
						c0.1,0.1,0,0.3-0.1,0.3l-50.2,28.8C197,317.4,197,317.4,197,317.4z"/>
				</g>
				<g>
					<g>
						<path class="st0" d="M205,289.1c-0.1,0-0.2-0.1-0.2-0.2l0-0.5c0-0.1,0.1-0.2,0.2-0.2c0.1,0,0.2,0.1,0.2,0.2l0,0.5
							C205.2,289,205.1,289.1,205,289.1z"/>
					</g>
					<g>
						<path class="st0" d="M205.1,308c-0.1,0-0.2-0.1-0.2-0.2c0-0.3-0.1-0.6-0.1-0.9c0-0.1,0.1-0.3,0.2-0.3c0.2,0,0.3,0.1,0.3,0.2
							c0,0.3,0,0.6,0.1,0.9C205.4,307.9,205.3,308,205.1,308C205.2,308,205.2,308,205.1,308z M205,306.1c-0.1,0-0.2-0.1-0.2-0.2
							c0-0.3,0-0.6,0-0.9c0-0.1,0.1-0.2,0.2-0.2c0.1,0,0.2,0.1,0.2,0.2c0,0.4,0,0.7,0,0.9C205.3,306,205.2,306.1,205,306.1
							C205,306.1,205,306.1,205,306.1z M205,304.2c-0.1,0-0.2-0.1-0.2-0.2l0-0.9c0-0.1,0.1-0.2,0.2-0.2h0c0.1,0,0.2,0.1,0.2,0.2
							l0,0.9C205.3,304.1,205.1,304.2,205,304.2C205,304.2,205,304.2,205,304.2z M205,302.3c-0.1,0-0.2-0.1-0.2-0.2l0-0.9
							c0-0.1,0.1-0.2,0.2-0.2h0c0.1,0,0.2,0.1,0.2,0.2l0,0.9C205.2,302.2,205.1,302.3,205,302.3L205,302.3z M205,300.4
							c-0.1,0-0.2-0.1-0.2-0.2l0-0.9c0-0.1,0.1-0.2,0.2-0.2s0.2,0.1,0.2,0.2l0,0.9C205.2,300.3,205.1,300.4,205,300.4z M205,298.5
							c-0.1,0-0.2-0.1-0.2-0.2v-0.9c0-0.1,0.1-0.2,0.2-0.2c0.1,0,0.2,0.1,0.2,0.2v0.9C205.2,298.4,205.1,298.5,205,298.5z
							 M205,296.7c-0.1,0-0.2-0.1-0.2-0.2v-0.9c0-0.1,0.1-0.2,0.2-0.2c0.1,0,0.2,0.1,0.2,0.2v0.9C205.2,296.5,205.1,296.7,205,296.7
							z M205,294.8L205,294.8c-0.1,0-0.2-0.1-0.2-0.2l0-0.9c0-0.1,0.1-0.2,0.2-0.2s0.2,0.1,0.2,0.2l0,0.9
							C205.2,294.7,205.1,294.8,205,294.8z M205,292.9L205,292.9c-0.1,0-0.2-0.1-0.2-0.2l0-0.9c0-0.1,0.1-0.2,0.2-0.2
							c0.1,0,0.2,0.1,0.2,0.2l0,0.9C205.2,292.8,205.1,292.9,205,292.9z M205,291c-0.1,0-0.2-0.1-0.2-0.2l0-0.9
							c0-0.1,0.1-0.2,0.2-0.2c0,0,0,0,0,0c0.1,0,0.2,0.1,0.2,0.2l0,0.9C205.2,290.9,205.1,291,205,291z"/>
					</g>
					<g>
						<path class="st0" d="M205.3,309.4c-0.1,0-0.2-0.1-0.2-0.2c0-0.2,0-0.3-0.1-0.5c0-0.1,0.1-0.3,0.2-0.3c0.1,0,0.3,0.1,0.3,0.2
							c0,0.2,0,0.3,0.1,0.5C205.6,309.3,205.5,309.4,205.3,309.4C205.3,309.4,205.3,309.4,205.3,309.4z"/>
					</g>
				</g>
				<g>
					<g>
						<path class="st0" d="M240.4,270.8c-0.1,0-0.2-0.1-0.2-0.2l0-0.5c0-0.1,0.1-0.2,0.2-0.2h0c0.1,0,0.2,0.1,0.2,0.2l0,0.5
							C240.7,270.7,240.6,270.8,240.4,270.8z"/>
					</g>
					<g>
						<path class="st0" d="M240.6,289.7c-0.1,0-0.2-0.1-0.2-0.2c0-0.3-0.1-0.6-0.1-0.9c0-0.1,0.1-0.3,0.2-0.3c0.2,0,0.3,0.1,0.3,0.2
							c0,0.3,0,0.6,0.1,0.9C240.8,289.6,240.7,289.7,240.6,289.7C240.6,289.7,240.6,289.7,240.6,289.7z M240.5,287.8
							c-0.1,0-0.2-0.1-0.2-0.2c0-0.3,0-0.6,0-0.9c0-0.1,0.1-0.2,0.2-0.2c0,0,0,0,0,0c0.1,0,0.2,0.1,0.2,0.2c0,0.4,0,0.7,0,0.9
							C240.7,287.7,240.6,287.8,240.5,287.8C240.5,287.8,240.5,287.8,240.5,287.8z M240.4,285.9c-0.1,0-0.2-0.1-0.2-0.2l0-0.9
							c0-0.1,0.1-0.2,0.2-0.2h0c0.1,0,0.2,0.1,0.2,0.2l0,0.9C240.7,285.8,240.6,285.9,240.4,285.9
							C240.4,285.9,240.4,285.9,240.4,285.9z M240.4,284.1c-0.1,0-0.2-0.1-0.2-0.2l0-0.9c0-0.1,0.1-0.2,0.2-0.2h0
							c0.1,0,0.2,0.1,0.2,0.2l0,0.9C240.7,283.9,240.6,284.1,240.4,284.1L240.4,284.1z M240.4,282.2c-0.1,0-0.2-0.1-0.2-0.2l0-0.9
							c0-0.1,0.1-0.2,0.2-0.2c0.1,0,0.2,0.1,0.2,0.2l0,0.9C240.7,282.1,240.6,282.2,240.4,282.2z M240.4,280.3
							c-0.1,0-0.2-0.1-0.2-0.2v-0.9c0-0.1,0.1-0.2,0.2-0.2c0.1,0,0.2,0.1,0.2,0.2v0.9C240.7,280.2,240.6,280.3,240.4,280.3z
							 M240.4,278.4c-0.1,0-0.2-0.1-0.2-0.2v-0.9c0-0.1,0.1-0.2,0.2-0.2c0.1,0,0.2,0.1,0.2,0.2v0.9
							C240.7,278.3,240.6,278.4,240.4,278.4z M240.4,276.5L240.4,276.5c-0.1,0-0.2-0.1-0.2-0.2l0-0.9c0-0.1,0.1-0.2,0.2-0.2
							s0.2,0.1,0.2,0.2l0,0.9C240.7,276.4,240.6,276.5,240.4,276.5z M240.4,274.6L240.4,274.6c-0.1,0-0.2-0.1-0.2-0.2l0-0.9
							c0-0.1,0.1-0.2,0.2-0.2c0.1,0,0.2,0.1,0.2,0.2l0,0.9C240.7,274.5,240.6,274.6,240.4,274.6z M240.4,272.7L240.4,272.7
							c-0.1,0-0.2-0.1-0.2-0.2l0-0.9c0-0.1,0.1-0.2,0.2-0.2s0.2,0.1,0.2,0.2l0,0.9C240.7,272.6,240.6,272.7,240.4,272.7z"/>
					</g>
					<g>
						<path class="st0" d="M240.7,291.1c-0.1,0-0.2-0.1-0.2-0.2c0-0.2,0-0.3-0.1-0.5c0-0.1,0.1-0.3,0.2-0.3c0.1,0,0.3,0.1,0.3,0.2
							c0,0.2,0,0.3,0.1,0.5C241,291,240.9,291.1,240.7,291.1C240.7,291.1,240.7,291.1,240.7,291.1z"/>
					</g>
				</g>
				<g>
					<g>
						<path class="st0" d="M222.7,285c-0.1,0-0.2-0.1-0.2-0.2v-0.5c0-0.1,0.1-0.2,0.2-0.2c0.1,0,0.2,0.1,0.2,0.2v0.5
							C223,284.9,222.8,285,222.7,285z"/>
					</g>
					<g>
						<path class="st0" d="M222.9,297.9c-0.1,0-0.2-0.1-0.2-0.2c0-0.3-0.1-0.6-0.1-0.9c0-0.1,0.1-0.3,0.2-0.3c0.2,0,0.3,0.1,0.3,0.2
							c0,0.3,0,0.6,0.1,0.9C223.1,297.8,223,297.9,222.9,297.9C222.9,297.9,222.9,297.9,222.9,297.9z M222.7,296.1
							c-0.1,0-0.2-0.1-0.2-0.2l0-0.9c0-0.1,0.1-0.2,0.2-0.2c0,0,0,0,0,0c0.1,0,0.2,0.1,0.2,0.2l0,0.9
							C223,295.9,222.9,296.1,222.7,296.1C222.7,296.1,222.7,296.1,222.7,296.1z M222.7,294.2c-0.1,0-0.2-0.1-0.2-0.2l0-0.9
							c0-0.1,0.1-0.2,0.2-0.2c0,0,0,0,0,0c0.1,0,0.2,0.1,0.2,0.2l0,0.9C223,294.1,222.9,294.2,222.7,294.2
							C222.7,294.2,222.7,294.2,222.7,294.2z M222.7,292.4c-0.1,0-0.2-0.1-0.2-0.2l0-0.9c0-0.1,0.1-0.2,0.2-0.2h0
							c0.1,0,0.2,0.1,0.2,0.2l0,0.9C223,292.3,222.8,292.4,222.7,292.4L222.7,292.4z M222.7,290.5c-0.1,0-0.2-0.1-0.2-0.2v-0.9
							c0-0.1,0.1-0.2,0.2-0.2c0.1,0,0.2,0.1,0.2,0.2v0.9C223,290.4,222.8,290.5,222.7,290.5z M222.7,288.7L222.7,288.7
							c-0.1,0-0.2-0.1-0.2-0.2l0-0.9c0-0.1,0.1-0.2,0.2-0.2c0.1,0,0.2,0.1,0.2,0.2l0,0.9C223,288.6,222.8,288.7,222.7,288.7z
							 M222.7,286.8L222.7,286.8c-0.1,0-0.2-0.1-0.2-0.2l0-0.9c0-0.1,0.1-0.2,0.2-0.2s0.2,0.1,0.2,0.2l0,0.9
							C223,286.7,222.8,286.8,222.7,286.8z"/>
					</g>
					<g>
						<path class="st0" d="M223,299.3c-0.1,0-0.2-0.1-0.2-0.2c0-0.2,0-0.3-0.1-0.5c0-0.1,0.1-0.3,0.2-0.3c0.1,0,0.3,0.1,0.3,0.2
							c0,0.2,0,0.3,0.1,0.5C223.3,299.2,223.2,299.3,223,299.3C223,299.3,223,299.3,223,299.3z"/>
					</g>
				</g>
				<g>
					<path class="st12" d="M205,286.5c0.5-0.3,0.8-0.1,0.8,0.4c0,0.5-0.4,1.1-0.8,1.4c-0.5,0.3-0.8,0.1-0.8-0.4
						C204.1,287.4,204.5,286.7,205,286.5z"/>
				</g>
				<path class="st12" d="M222.7,282.4c0.5-0.3,0.8-0.1,0.8,0.4s-0.4,1.1-0.8,1.4c-0.5,0.3-0.8,0.1-0.8-0.4
					C221.9,283.3,222.2,282.6,222.7,282.4z"/>
				<path class="st12" d="M240.4,269.2c0.5-0.3,0.8-0.1,0.8,0.4s-0.4,1.1-0.8,1.4c-0.5,0.3-0.8,0.1-0.8-0.4
					C239.6,270.1,239.9,269.5,240.4,269.2z"/>
				<path class="st12" d="M197.3,292.2c0.1-0.1,0.2-0.2,0.1-0.3c-0.1-0.1-0.2-0.2-0.3-0.1l-0.6,0.4v-2.5l0.9-0.5
					c0.1-0.1,0.2-0.2,0.1-0.3c-0.1-0.1-0.2-0.2-0.3-0.1l-0.6,0.4v-2.7c0-0.1-0.1-0.2-0.2-0.2c-0.1,0-0.2,0.1-0.2,0.2v3l-0.9,0.5
					c-0.1,0.1-0.2,0.2-0.1,0.3c0,0.1,0.1,0.1,0.2,0.1c0,0,0.1,0,0.1,0l0.6-0.4v2.5l-0.9,0.5c-0.1,0.1-0.2,0.2-0.1,0.3
					c0,0.1,0.1,0.1,0.2,0.1c0,0,0.1,0,0.1,0l0.6-0.4v2.5L195,296c-0.1,0.1-0.2,0.2-0.1,0.3c0,0.1,0.1,0.1,0.2,0.1c0,0,0.1,0,0.1,0
					l0.6-0.4v2.5l-0.9,0.5c-0.1,0.1-0.2,0.2-0.1,0.3c0,0.1,0.1,0.1,0.2,0.1c0,0,0.1,0,0.1,0l0.6-0.4v2.5l-0.9,0.5
					c-0.1,0.1-0.2,0.2-0.1,0.3c0,0.1,0.1,0.1,0.2,0.1c0,0,0.1,0,0.1,0l0.6-0.4v2.5l-0.9,0.5c-0.1,0.1-0.2,0.2-0.1,0.3
					c0,0.1,0.1,0.1,0.2,0.1c0,0,0.1,0,0.1,0l0.6-0.4v2.5l-0.9,0.5c-0.1,0.1-0.2,0.2-0.1,0.3c0,0.1,0.1,0.1,0.2,0.1c0,0,0.1,0,0.1,0
					l0.6-0.4c0,0.8,0,1.7,0,2.5l-0.9,0.5c-0.1,0.1-0.2,0.2-0.1,0.3c0,0.1,0.1,0.1,0.2,0.1c0,0,0.1,0,0.1,0l0.7-0.4
					c0.1,0.9,0.1,1.8,0.2,2.7c0,0.1,0.1,0.2,0.2,0.2c0,0,0,0,0,0c0.1,0,0.2-0.1,0.2-0.3c-0.1-1-0.2-2-0.3-3l0.8-0.5
					c0.1-0.1,0.2-0.2,0.1-0.3c-0.1-0.1-0.2-0.2-0.3-0.1l-0.6,0.4c0-0.8,0-1.7,0-2.5l0.9-0.5c0.1-0.1,0.2-0.2,0.1-0.3
					c-0.1-0.1-0.2-0.2-0.3-0.1l-0.6,0.4v-2.5l0.9-0.5c0.1-0.1,0.2-0.2,0.1-0.3c-0.1-0.1-0.2-0.2-0.3-0.1l-0.6,0.4V302l0.9-0.5
					c0.1-0.1,0.2-0.2,0.1-0.3c-0.1-0.1-0.2-0.2-0.3-0.1l-0.6,0.4v-2.5l0.9-0.5c0.1-0.1,0.2-0.2,0.1-0.3c-0.1-0.1-0.2-0.2-0.3-0.1
					l-0.6,0.4v-2.5l0.9-0.5c0.1-0.1,0.2-0.2,0.1-0.3c-0.1-0.1-0.2-0.2-0.3-0.1l-0.6,0.4v-2.5L197.3,292.2z"/>
			</g>
			<path class="st5" d="M258.8,307.4l-47.2,27.2c-1.7,1-4.1,0.8-5.3-0.4c-1.2-1.2-0.7-3.1,1-4l47.2-27.2c1.7-1,3.9-0.6,5.1,0.6
				C260.8,304.8,260.5,306.4,258.8,307.4z"/>
			<g>
				<g>
					<path class="st12" d="M197.8,320.7c-0.1,0-0.2-0.1-0.3-0.2c-0.1-0.2,0-0.4,0.1-0.5l53.2-30.7c0.2-0.1,0.4,0,0.5,0.1
						c0.1,0.2,0,0.4-0.1,0.5L198,320.6C197.9,320.6,197.9,320.7,197.8,320.7z"/>
				</g>
				<g>
					<path class="st12" d="M198.9,323.5c-0.1,0-0.2-0.1-0.3-0.2c-0.1-0.2,0-0.4,0.1-0.5l53.2-30.7c0.2-0.1,0.4,0,0.5,0.1
						c0.1,0.2,0,0.4-0.1,0.5l-53.2,30.7C199,323.5,199,323.5,198.9,323.5z"/>
				</g>
				<g>
					<path class="st12" d="M200.3,326.3c-0.1,0-0.2-0.1-0.3-0.2c-0.1-0.2,0-0.4,0.1-0.5l53.2-30.7c0.2-0.1,0.4,0,0.5,0.1
						c0.1,0.2,0,0.4-0.1,0.5l-53.2,30.7C200.4,326.3,200.3,326.3,200.3,326.3z"/>
				</g>
				<g>
					<path class="st12" d="M201.8,328.9c-0.1,0-0.2-0.1-0.3-0.2c-0.1-0.2,0-0.4,0.1-0.5l53.2-30.7c0.2-0.1,0.4,0,0.5,0.1
						c0.1,0.2,0,0.4-0.1,0.5L202,328.9C202,328.9,201.9,328.9,201.8,328.9z"/>
				</g>
			</g>
		</g>
	</g>
	<g>
		<path class="st5" d="M248.2,278.1l43.7-25.2c1.7-1,4.3-1.5,5.8-0.9c1.5,0.6,1.2,2.2-0.5,3.1l-44.2,25.5c-1.7,1-4,1.1-5.3,0.3
			C246.4,280.2,246.6,279,248.2,278.1z"/>
		<path class="st12" d="M253.3,285c-0.1,0-0.2-0.1-0.3-0.2c-0.1-0.2,0-0.4,0.1-0.5l50.4-29.1c0.2-0.1,0.4,0,0.5,0.1
			c0.1,0.2,0,0.4-0.1,0.5L253.5,285C253.4,285,253.4,285,253.3,285z"/>
		<path class="st12" d="M255.4,287.3c-0.1,0-0.2-0.1-0.3-0.2c-0.1-0.2,0-0.4,0.1-0.5l50.5-29.1c0.2-0.1,0.4,0,0.5,0.1
			c0.1,0.2,0,0.4-0.1,0.5l-50.5,29.1C255.5,287.3,255.5,287.3,255.4,287.3z"/>
		<g>
			<path class="st12" d="M263.8,313L263.8,313c-0.1,0-0.2-0.1-0.2-0.2l0-2.7c0-2,0-2-0.1-3.4l0-0.2c-0.2-3.3-0.8-6.3-1.8-9.1
				c-0.9-2.6-2.4-5.2-4.5-7.9c-0.1-0.1-0.1-0.3,0-0.3c0.1-0.1,0.3-0.1,0.3,0c2.2,2.7,3.7,5.4,4.6,8.1c1,2.8,1.6,5.9,1.8,9.3l0,0.2
				c0.1,1.4,0.1,1.4,0.1,3.4l0,2.7C264,312.9,263.9,313,263.8,313z"/>
		</g>
		<path class="st5" d="M263.3,292c-0.2-0.4-0.5-0.8-0.7-1.2c-0.3-0.4-0.2-0.9,0.2-1.1l19.3-11.1c0.4-0.2,1-0.1,1.2,0.3
			c0.2,0.4,0.5,0.8,0.7,1.2c0.2,0.4,0,1-0.4,1.2l-19.2,11.1C264,292.6,263.5,292.4,263.3,292z"/>
		<path class="st5" d="M265.1,296.4c0.1,0.4,0.3,0.9,0.4,1.3c0.1,0.5,0.6,0.6,1,0.4l45.7-26.4c0.4-0.2,0.7-0.8,0.5-1.3
			c-0.1-0.5-0.3-0.9-0.4-1.3c-0.1-0.5-0.6-0.6-1-0.4l-45.7,26.4C265.2,295.4,265,296,265.1,296.4z"/>
		<path class="st14" d="M265.1,296.4c0.1,0.4,0.3,0.9,0.4,1.3c0.1,0.5,0.6,0.6,1,0.4l45.7-26.4c0.4-0.2,0.7-0.8,0.5-1.3
			c-0.1-0.5-0.3-0.9-0.4-1.3c-0.1-0.5-0.6-0.6-1-0.4l-45.7,26.4C265.2,295.4,265,296,265.1,296.4z"/>
		<path class="st5" d="M266.5,302.5c0.1,0.5,0.1,1,0.1,1.4c0,0.5,0.4,0.7,0.8,0.4l31-17.9c0.4-0.2,0.7-0.8,0.7-1.3
			c0-0.5-0.1-0.9-0.1-1.4c-0.1-0.5-0.5-0.7-0.9-0.4l-31,17.9C266.7,301.5,266.4,302,266.5,302.5z"/>
		<path class="st13" d="M266.5,302.5c0.1,0.5,0.1,1,0.1,1.4c0,0.5,0.4,0.7,0.8,0.4l31-17.9c0.4-0.2,0.7-0.8,0.7-1.3
			c0-0.5-0.1-0.9-0.1-1.4c-0.1-0.5-0.5-0.7-0.9-0.4l-31,17.9C266.7,301.5,266.4,302,266.5,302.5z"/>
		<path class="st5" d="M266.7,308.8l0,1.4c0,0.5,0.3,0.7,0.8,0.4l13.3-7.7c0.4-0.2,0.8-0.8,0.8-1.3v-1.4c0-0.5-0.3-0.7-0.8-0.4
			l-13.3,7.7C267,307.8,266.7,308.4,266.7,308.8z"/>
		<path class="st15" d="M266.7,308.8l0,1.4c0,0.5,0.3,0.7,0.8,0.4l13.3-7.7c0.4-0.2,0.8-0.8,0.8-1.3v-1.4c0-0.5-0.3-0.7-0.8-0.4
			l-13.3,7.7C267,307.8,266.7,308.4,266.7,308.8z"/>
		<path class="st12" d="M313.9,286.8c-0.1,0-0.2,0.1-0.2,0.2v1.2l-3.5,2v-0.9c0-0.1-0.1-0.2-0.2-0.2c-0.1,0-0.2,0.1-0.2,0.2v1.2
			l-3.5,2v-0.9c0-0.1-0.1-0.2-0.2-0.2c-0.1,0-0.2,0.1-0.2,0.2v1.2l-3.5,2v-0.9c0-0.1-0.1-0.2-0.2-0.2c-0.1,0-0.2,0.1-0.2,0.2v1.1
			l-3.5,2v-0.8c0-0.1-0.1-0.2-0.2-0.2c-0.1,0-0.2,0.1-0.2,0.2v1.1l-3.5,2v-0.8c0-0.1-0.1-0.2-0.2-0.2c-0.1,0-0.2,0.1-0.2,0.2v1.1
			l-3.5,2v-0.8c0-0.1-0.1-0.2-0.2-0.2c-0.1,0-0.2,0.1-0.2,0.2v1.1l-3.5,2v-0.8c0-0.1-0.1-0.2-0.2-0.2s-0.2,0.1-0.2,0.2v1.1l-3.5,2
			v-0.8c0-0.1-0.1-0.2-0.2-0.2c-0.1,0-0.2,0.1-0.2,0.2v1.1l-3.5,2v-0.8c0-0.1-0.1-0.2-0.2-0.2c-0.1,0-0.2,0.1-0.2,0.2v1l-3.5,2v-0.7
			c0-0.1-0.1-0.2-0.2-0.2c-0.1,0-0.2,0.1-0.2,0.2v1l-3.5,2v-0.7c0-0.1-0.1-0.2-0.2-0.2c-0.1,0-0.2,0.1-0.2,0.2v1l-3.1,1.8
			c-0.1,0.1-0.2,0.2-0.1,0.3c0,0.1,0.1,0.1,0.2,0.1c0,0,0.1,0,0.1,0l2.8-1.6v1c0,0.1,0.1,0.2,0.2,0.2c0.1,0,0.2-0.1,0.2-0.2v-1.3
			l3.5-2v1c0,0.1,0.1,0.2,0.2,0.2c0.1,0,0.2-0.1,0.2-0.2v-1.3l3.5-2v1c0,0.1,0.1,0.2,0.2,0.2c0.1,0,0.2-0.1,0.2-0.2v-1.3l3.5-2v1
			c0,0.1,0.1,0.2,0.2,0.2c0.1,0,0.2-0.1,0.2-0.2v-1.2l3.5-2v0.9c0,0.1,0.1,0.2,0.2,0.2s0.2-0.1,0.2-0.2v-1.2l3.5-2v0.9
			c0,0.1,0.1,0.2,0.2,0.2c0.1,0,0.2-0.1,0.2-0.2v-1.2l3.5-2v0.9c0,0.1,0.1,0.2,0.2,0.2c0.1,0,0.2-0.1,0.2-0.2v-1.2l3.5-2v0.9
			c0,0.1,0.1,0.2,0.2,0.2c0.1,0,0.2-0.1,0.2-0.2v-1.2l3.5-2v0.9c0,0.1,0.1,0.2,0.2,0.2c0.1,0,0.2-0.1,0.2-0.2v-1.2l3.5-2v0.9
			c0,0.1,0.1,0.2,0.2,0.2c0.1,0,0.2-0.1,0.2-0.2v-1.1l3.5-2v0.8c0,0.1,0.1,0.2,0.2,0.2c0.1,0,0.2-0.1,0.2-0.2v-1.1l3.5-2v0.8
			c0,0.1,0.1,0.2,0.2,0.2c0.1,0,0.2-0.1,0.2-0.2v-2.6C314.2,286.9,314.1,286.8,313.9,286.8z"/>
		<g>
			<g>
				<path class="st5" d="M275.2,319.2c-0.8,0.2-1.7,0.5-2.6,1c-4.9,2.9-8.8,10.1-8.8,16c0,0.2,0,0.3,0,0.5l8.8-4L275.2,319.2z"/>
				<path class="st5" d="M275.2,319.2l-2.6,13.5l8.8-5.1c0.1-0.5,0.1-1.1,0.1-1.6C281.5,321.1,278.8,318.5,275.2,319.2z"/>
				<path class="st5" d="M280.3,332.2c0.6-1.5,1-3.1,1.1-4.6l-8.8,5.1L280.3,332.2z"/>
				<path class="st5" d="M263.8,336.8c0.2,5.7,4.1,8,8.8,5.3c3.3-1.9,6.1-5.7,7.6-9.9l-7.6,0.5L263.8,336.8z"/>
			</g>
			<g>
				<path class="st14" d="M275.2,319.2l-2.6,13.5l8.8-5.1c0.1-0.5,0.1-1.1,0.1-1.6C281.5,321.1,278.8,318.5,275.2,319.2z"/>
				<path class="st13" d="M280.3,332.2c0.6-1.5,1-3.1,1.1-4.6l-8.8,5.1L280.3,332.2z"/>
				<path class="st15" d="M263.8,336.8c0.2,5.7,4.1,8,8.8,5.3c3.3-1.9,6.1-5.7,7.6-9.9l-7.6,0.5L263.8,336.8z"/>
			</g>
			<g>
				<path class="st16" d="M275.2,319.2c-0.8,0.2-1.7,0.5-2.6,1c-4.9,2.9-8.8,10.1-8.8,16c0,0.2,0,0.3,0,0.5l8.8-4L275.2,319.2z"/>
				<path class="st16" d="M275.2,319.2l-2.6,13.5l8.8-5.1c0.1-0.5,0.1-1.1,0.1-1.6C281.5,321.1,278.8,318.5,275.2,319.2z"/>
				<path class="st16" d="M280.3,332.2c0.6-1.5,1-3.1,1.1-4.6l-8.8,5.1L280.3,332.2z"/>
				<path class="st16" d="M263.8,336.8c0.2,5.7,4.1,8,8.8,5.3c3.3-1.9,6.1-5.7,7.6-9.9l-7.6,0.5L263.8,336.8z"/>
			</g>
		</g>
		<g>
			<path class="st5" d="M301.1,304.9c-2.9,3.5-4.8,8.3-4.8,12.6c0,1.9,0.4,3.5,1.1,4.7l7.7-9.8L301.1,304.9z"/>
			<path class="st5" d="M309.1,300.3c-1.2-0.1-2.6,0.3-4,1.1c-1.4,0.8-2.8,2-4,3.5l4,7.4L309.1,300.3z"/>
			<path class="st5" d="M313.1,303.1c-0.8-1.7-2.3-2.7-4-2.8l-4,12.1L313.1,303.1z"/>
			<path class="st5" d="M313.1,303.1l-8,9.3l-7.7,9.8c1.5,2.5,4.4,3.1,7.7,1.1c4.9-2.8,8.9-10,8.9-16.1
				C313.9,305.6,313.6,304.2,313.1,303.1z"/>
		</g>
		<g>
			<path class="st14" d="M309.1,300.3c-1.2-0.1-2.6,0.3-4,1.1c-1.4,0.8-2.8,2-4,3.5l4,7.4L309.1,300.3z"/>
			<path class="st13" d="M313.1,303.1c-0.8-1.7-2.3-2.7-4-2.8l-4,12.1L313.1,303.1z"/>
			<path class="st15" d="M313.1,303.1l-8,9.3l-7.7,9.8c1.5,2.5,4.4,3.1,7.7,1.1c4.9-2.8,8.9-10,8.9-16.1
				C313.9,305.6,313.6,304.2,313.1,303.1z"/>
		</g>
		<g>
			<path class="st16" d="M301.1,304.9c-2.9,3.5-4.8,8.3-4.8,12.6c0,1.9,0.4,3.5,1.1,4.7l7.7-9.8L301.1,304.9z"/>
			<path class="st16" d="M309.1,300.3c-1.2-0.1-2.6,0.3-4,1.1c-1.4,0.8-2.8,2-4,3.5l4,7.4L309.1,300.3z"/>
			<path class="st16" d="M313.1,303.1c-0.8-1.7-2.3-2.7-4-2.8l-4,12.1L313.1,303.1z"/>
			<path class="st16" d="M313.1,303.1l-8,9.3l-7.7,9.8c1.5,2.5,4.4,3.1,7.7,1.1c4.9-2.8,8.9-10,8.9-16.1
				C313.9,305.6,313.6,304.2,313.1,303.1z"/>
		</g>
		<g>
			<g>
				<path class="st5" d="M285.2,313l1.4-0.8c0.4-0.2,0.8,0,0.8,0.4l0,1.4c0,0.5-0.3,1.1-0.8,1.3l-1.4,0.8c-0.4,0.2-0.8,0-0.8-0.4
					l0-1.4C284.4,313.8,284.8,313.2,285.2,313z"/>
			</g>
			<g>
				<path class="st5" d="M285.2,319.2l1.4-0.8c0.4-0.2,0.8,0,0.8,0.4l0,1.4c0,0.5-0.3,1.1-0.8,1.3l-1.4,0.8c-0.4,0.2-0.8,0-0.8-0.4
					l0-1.4C284.4,320,284.8,319.4,285.2,319.2z"/>
				<path class="st14" d="M285.2,319.2l1.4-0.8c0.4-0.2,0.8,0,0.8,0.4l0,1.4c0,0.5-0.3,1.1-0.8,1.3l-1.4,0.8c-0.4,0.2-0.8,0-0.8-0.4
					l0-1.4C284.4,320,284.8,319.4,285.2,319.2z"/>
			</g>
			<g>
				<path class="st5" d="M285.2,325.4l1.4-0.8c0.4-0.2,0.8,0,0.8,0.4l0,1.4c0,0.5-0.3,1.1-0.8,1.3l-1.4,0.8c-0.4,0.2-0.8,0-0.8-0.4
					l0-1.4C284.4,326.3,284.8,325.7,285.2,325.4z"/>
				<path class="st13" d="M285.2,325.4l1.4-0.8c0.4-0.2,0.8,0,0.8,0.4l0,1.4c0,0.5-0.3,1.1-0.8,1.3l-1.4,0.8c-0.4,0.2-0.8,0-0.8-0.4
					l0-1.4C284.4,326.3,284.8,325.7,285.2,325.4z"/>
			</g>
			<g>
				<path class="st5" d="M285.2,331.7l1.4-0.8c0.4-0.2,0.8,0,0.8,0.4l0,1.4c0,0.5-0.3,1.1-0.8,1.3l-1.4,0.8c-0.4,0.2-0.8,0-0.8-0.4
					l0-1.4C284.4,332.5,284.8,331.9,285.2,331.7z"/>
				<path class="st15" d="M285.2,331.7l1.4-0.8c0.4-0.2,0.8,0,0.8,0.4l0,1.4c0,0.5-0.3,1.1-0.8,1.3l-1.4,0.8c-0.4,0.2-0.8,0-0.8-0.4
					l0-1.4C284.4,332.5,284.8,331.9,285.2,331.7z"/>
			</g>
		</g>
		<g>
			<path class="st12" d="M288.9,312.8c-0.2,0-0.3-0.1-0.4-0.2c-0.1-0.2-0.1-0.5,0.2-0.7l4.4-2.5c0.2-0.1,0.5-0.1,0.7,0.2
				c0.1,0.2,0.1,0.5-0.2,0.7l-4.4,2.5C289,312.8,288.9,312.8,288.9,312.8z"/>
		</g>
		<g>
			<path class="st12" d="M288.8,319.1c-0.2,0-0.3-0.1-0.4-0.2c-0.1-0.2-0.1-0.5,0.2-0.7l4.4-2.5c0.2-0.1,0.5-0.1,0.7,0.2
				c0.1,0.2,0.1,0.5-0.2,0.7l-4.4,2.5C289,319.1,288.9,319.1,288.8,319.1z"/>
		</g>
		<g>
			<path class="st12" d="M288.7,325.4c-0.2,0-0.3-0.1-0.4-0.2c-0.1-0.2-0.1-0.5,0.2-0.7l4.4-2.5c0.2-0.1,0.5-0.1,0.7,0.2
				c0.1,0.2,0.1,0.5-0.2,0.7l-4.4,2.5C288.9,325.4,288.8,325.4,288.7,325.4z"/>
		</g>
		<g>
			<path class="st12" d="M288.7,331.7c-0.2,0-0.3-0.1-0.4-0.2c-0.1-0.2-0.1-0.5,0.2-0.7l4.4-2.5c0.2-0.1,0.5-0.1,0.7,0.2
				c0.1,0.2,0.1,0.5-0.2,0.7l-4.4,2.5C288.8,331.7,288.7,331.7,288.7,331.7z"/>
		</g>
		<g>
			<g>
				<path class="st12" d="M264.3,353.9c-0.2,0-0.3-0.1-0.4-0.2c-0.1-0.2-0.1-0.5,0.2-0.7l20.7-11.9c0.2-0.1,0.5-0.1,0.7,0.2
					c0.1,0.2,0.1,0.5-0.2,0.7l-20.7,11.9C264.5,353.9,264.4,353.9,264.3,353.9z"/>
			</g>
			<g>
				<path class="st12" d="M265,357c-0.2,0-0.3-0.1-0.4-0.2c-0.1-0.2-0.1-0.5,0.2-0.7l20.7-11.9c0.2-0.1,0.5-0.1,0.7,0.2
					c0.1,0.2,0.1,0.5-0.2,0.7l-20.7,11.9C265.2,357,265.1,357,265,357z"/>
			</g>
			<g>
				<path class="st12" d="M265.9,360c-0.2,0-0.3-0.1-0.4-0.2c-0.1-0.2-0.1-0.5,0.2-0.7l20.7-11.9c0.2-0.1,0.5-0.1,0.7,0.2
					c0.1,0.2,0.1,0.5-0.2,0.7l-20.7,11.9C266.1,359.9,266,360,265.9,360z"/>
			</g>
		</g>
		<g>
			<g>
				<path class="st12" d="M296.8,335.2c-0.2,0-0.3-0.1-0.4-0.2c-0.1-0.2-0.1-0.5,0.2-0.7l20.7-11.9c0.2-0.1,0.5-0.1,0.7,0.2
					c0.1,0.2,0.1,0.5-0.2,0.7L297,335.2C296.9,335.2,296.8,335.2,296.8,335.2z"/>
			</g>
			<g>
				<path class="st12" d="M297.4,338.3c-0.2,0-0.3-0.1-0.4-0.2c-0.1-0.2-0.1-0.5,0.2-0.7l20.7-11.9c0.2-0.1,0.5-0.1,0.7,0.2
					c0.1,0.2,0.1,0.5-0.2,0.7l-20.7,11.9C297.6,338.3,297.5,338.3,297.4,338.3z"/>
			</g>
			<g>
				<path class="st12" d="M298.4,341.2c-0.2,0-0.3-0.1-0.4-0.2c-0.1-0.2-0.1-0.5,0.2-0.7l20.7-11.9c0.2-0.1,0.5-0.1,0.7,0.2
					c0.1,0.2,0.1,0.5-0.2,0.7l-20.7,11.9C298.5,341.2,298.5,341.2,298.4,341.2z"/>
			</g>
		</g>
		<path class="st5" d="M271.6,363.3l47.1-27.2c1.7-1,3.7-0.5,4.7,0.8c1,1.4,0.6,3.2-1.1,4.1l-47.1,27.2c-1.7,1-3.9,0.7-4.9-0.7
			C269.3,366.2,270,364.3,271.6,363.3z"/>
		<g>
			<g>
				<path class="st12" d="M279.4,376.6c-0.2,0-0.3-0.1-0.4-0.2c-0.1-0.2-0.1-0.5,0.2-0.7l20.7-11.9c0.2-0.1,0.5-0.1,0.7,0.2
					c0.1,0.2,0.1,0.5-0.2,0.7l-20.7,11.9C279.6,376.6,279.5,376.6,279.4,376.6z"/>
			</g>
			<g>
				<path class="st12" d="M276.8,374.8c-0.2,0-0.3-0.1-0.4-0.2c-0.1-0.2-0.1-0.5,0.2-0.7l20.7-11.9c0.2-0.1,0.5-0.1,0.7,0.2
					c0.1,0.2,0.1,0.5-0.2,0.7L277,374.7C277,374.8,276.9,374.8,276.8,374.8z"/>
			</g>
			<g>
				<path class="st12" d="M282.1,378.2c-0.2,0-0.3-0.1-0.4-0.2c-0.1-0.2-0.1-0.5,0.2-0.7l20.7-11.9c0.2-0.1,0.5-0.1,0.7,0.2
					c0.1,0.2,0.1,0.5-0.2,0.7l-20.7,11.9C282.3,378.2,282.2,378.2,282.1,378.2z"/>
			</g>
		</g>
		<g>
			<g>
				<path class="st12" d="M308.9,359.6c-0.2,0-0.3-0.1-0.4-0.2c-0.1-0.2-0.1-0.5,0.2-0.7l20.7-11.9c0.2-0.1,0.5-0.1,0.7,0.2
					c0.1,0.2,0.1,0.5-0.2,0.7l-20.7,11.9C309,359.6,309,359.6,308.9,359.6z"/>
			</g>
			<g>
				<path class="st12" d="M306.3,357.8c-0.2,0-0.3-0.1-0.4-0.2c-0.1-0.2-0.1-0.5,0.2-0.7l20.7-11.9c0.2-0.1,0.5-0.1,0.7,0.2
					c0.1,0.2,0.1,0.5-0.2,0.7l-20.7,11.9C306.5,357.8,306.4,357.8,306.3,357.8z"/>
			</g>
			<g>
				<path class="st12" d="M311.6,361.2c-0.2,0-0.3-0.1-0.4-0.2c-0.1-0.2-0.1-0.5,0.2-0.7l20.7-11.9c0.2-0.1,0.5-0.1,0.7,0.2
					c0.1,0.2,0.1,0.5-0.2,0.7l-20.7,11.9C311.8,361.2,311.7,361.2,311.6,361.2z"/>
			</g>
		</g>
		<g>
			<g>
				<path class="st5" d="M311.9,376.1c-4.5-2.6-12.1-2.4-17,0.4c-4.9,2.8-5.2,7.2-0.7,9.8c4.5,2.6,12.1,2.4,17-0.4
					C316.1,383.1,316.4,378.7,311.9,376.1z M308.9,384.5c-3.5,2-8.9,2.1-12.1,0.3c-3.2-1.9-3-5,0.5-7c3.5-2,8.9-2.1,12.1-0.3
					C312.6,379.4,312.3,382.5,308.9,384.5z"/>
				<path class="st5" d="M299.6,379.2c2.1-1.2,5.4-1.3,7.3-0.2c1.9,1.1,1.8,3-0.3,4.2c-2.1,1.2-5.4,1.3-7.3,0.2
					C297.3,382.3,297.5,380.4,299.6,379.2z"/>
			</g>
			<path class="st17" d="M299.6,379.2c2.1-1.2,5.4-1.3,7.3-0.2c1.9,1.1,1.8,3-0.3,4.2c-2.1,1.2-5.4,1.3-7.3,0.2
				C297.3,382.3,297.5,380.4,299.6,379.2z"/>
			<path class="st13" d="M311.9,376.1c-4.5-2.6-12.1-2.4-17,0.4c-4.9,2.8-5.2,7.2-0.7,9.8c4.5,2.6,12.1,2.4,17-0.4
				C316.1,383.1,316.4,378.7,311.9,376.1z M308.9,384.5c-3.5,2-8.9,2.1-12.1,0.3c-3.2-1.9-3-5,0.5-7c3.5-2,8.9-2.1,12.1-0.3
				C312.6,379.4,312.3,382.5,308.9,384.5z"/>
			<g>
				<path class="st5" d="M299.5,374.8l1,1.8c2-0.5,4.1-0.5,6-0.1l1.4-1.9C305.2,374.1,302.2,374.1,299.5,374.8z"/>
				<path class="st14" d="M299.5,374.8l1,1.8c2-0.5,4.1-0.5,6-0.1l1.4-1.9C305.2,374.1,302.2,374.1,299.5,374.8z"/>
			</g>
			<g>
				<path class="st12" d="M303.7,373.9C303.7,373.9,303.6,373.9,303.7,373.9c-0.3,0-0.5-0.2-0.5-0.5l0.1-2.3l9.1-5.2
					c0.2-0.1,0.5-0.1,0.7,0.2c0.1,0.2,0.1,0.5-0.2,0.7l-8.6,5l-0.1,1.7C304.1,373.7,303.9,373.9,303.7,373.9z"/>
			</g>
		</g>
		<g>
			<g>
				<g>
					<path class="st5" d="M338.5,360.8c-4.5-2.6-12.1-2.4-17,0.4c-4.9,2.8-5.2,7.2-0.7,9.8c4.5,2.6,12.1,2.4,17-0.4
						C342.6,367.7,342.9,363.4,338.5,360.8z M335.4,369.2c-3.5,2-8.9,2.1-12.1,0.3c-3.2-1.9-3-5,0.5-7c3.5-2,8.9-2.1,12.1-0.3
						C339.1,364.1,338.9,367.2,335.4,369.2z"/>
					<path class="st5" d="M326.1,363.9c2.1-1.2,5.4-1.3,7.3-0.2c1.9,1.1,1.8,3-0.3,4.2s-5.4,1.3-7.3,0.2
						C323.9,367,324,365.1,326.1,363.9z"/>
				</g>
				<path class="st17" d="M326.1,363.9c2.1-1.2,5.4-1.3,7.3-0.2c1.9,1.1,1.8,3-0.3,4.2s-5.4,1.3-7.3,0.2
					C323.9,367,324,365.1,326.1,363.9z"/>
				<path class="st13" d="M338.5,360.8c-4.5-2.6-12.1-2.4-17,0.4c-4.9,2.8-5.2,7.2-0.7,9.8c4.5,2.6,12.1,2.4,17-0.4
					C342.6,367.7,342.9,363.4,338.5,360.8z M335.4,369.2c-3.5,2-8.9,2.1-12.1,0.3c-3.2-1.9-3-5,0.5-7c3.5-2,8.9-2.1,12.1-0.3
					C339.1,364.1,338.9,367.2,335.4,369.2z"/>
				<g>
					<path class="st5" d="M338.5,360.8c-3.8-2.2-9.8-2.4-14.5-0.7l1.6,1.7c3.4-1.2,7.7-1.1,10.4,0.5c0.5,0.3,0.9,0.6,1.2,0.9l3-1.1
						C339.7,361.6,339.2,361.2,338.5,360.8z"/>
					<path class="st14" d="M338.5,360.8c-3.8-2.2-9.8-2.4-14.5-0.7l1.6,1.7c3.4-1.2,7.7-1.1,10.4,0.5c0.5,0.3,0.9,0.6,1.2,0.9l3-1.1
						C339.7,361.6,339.2,361.2,338.5,360.8z"/>
				</g>
				<g>
					<path class="st12" d="M330.3,358.5C330.3,358.5,330.3,358.5,330.3,358.5c-0.3,0-0.5-0.2-0.5-0.5l0.1-2.3l9.1-5.2
						c0.2-0.1,0.5-0.1,0.7,0.2c0.1,0.2,0.1,0.5-0.2,0.7l-8.6,5l-0.1,1.7C330.8,358.3,330.6,358.5,330.3,358.5z"/>
				</g>
			</g>
		</g>
		<g>
			<g>
				<path class="st12" d="M306.5,392.3c-0.2,0-0.3-0.1-0.4-0.2c-0.1-0.2-0.1-0.5,0.2-0.7l50.2-29c0.2-0.1,0.5-0.1,0.7,0.2
					c0.1,0.2,0.1,0.5-0.2,0.7l-50.2,29C306.6,392.3,306.5,392.3,306.5,392.3z"/>
			</g>
			<g>
				<path class="st12" d="M309.2,393.9c-0.2,0-0.3-0.1-0.4-0.2c-0.1-0.2-0.1-0.5,0.2-0.7l50.2-29c0.2-0.1,0.5-0.1,0.7,0.2
					c0.1,0.2,0.1,0.5-0.2,0.7l-50.2,29C309.3,393.8,309.3,393.9,309.2,393.9z"/>
			</g>
			<g>
				<path class="st12" d="M311.9,395.4c-0.2,0-0.3-0.1-0.4-0.2c-0.1-0.2-0.1-0.5,0.2-0.7l50.2-29c0.2-0.1,0.5-0.1,0.7,0.2
					c0.1,0.2,0.1,0.5-0.2,0.7l-50.2,29C312.1,395.4,312,395.4,311.9,395.4z"/>
			</g>
		</g>
	</g>
</g>
</svg>
